<?xml version="1.0" encoding="utf-8"?>
<!-- Generator: Adobe Illustrator 16.0.1, SVG Export Plug-In . SVG Version: 6.00 Build 0)  -->
<!DOCTYPE svg PUBLIC "-//W3C//DTD SVG 1.1//EN" "http://www.w3.org/Graphics/SVG/1.1/DTD/svg11.dtd">
<svg version="1.1" id="Layer_1" xmlns="http://www.w3.org/2000/svg" xmlns:xlink="http://www.w3.org/1999/xlink" x="0px" y="0px"
	 width="800px" height="800px" viewBox="240 0 800 800" enable-background="new 240 0 800 800" xml:space="preserve">
<g>
	<g>
		<path d="M676.736,148.533c-13.184-6.4-28.864-4.8-40.448,4.16L484.672,270.517H384c-21.184,0-38.4,17.216-38.4,38.4v182.145
			c0,21.184,17.216,38.399,38.4,38.399h100.671l151.616,117.824c6.912,5.312,15.232,8.064,23.552,8.064
			c5.761,0,11.521-1.28,16.896-3.904c13.184-6.464,21.504-19.84,21.504-34.496v-433.92
			C698.24,168.373,689.92,154.997,676.736,148.533z M422.4,347.317h37.056v105.344H422.4V347.317z M621.44,538.485l-85.185-66.24
			V327.733l85.185-66.24V538.485z"/>
	</g>
	<g>
		<path d="M914.944,426.421c15.04,14.977,15.04,39.296,0,54.272c-7.488,7.488-17.28,11.264-27.136,11.264
			c-9.856,0-19.648-3.775-27.137-11.264l-26.432-26.432l-26.432,26.432c-7.488,7.488-17.28,11.264-27.137,11.264
			c-9.855,0-19.647-3.775-27.136-11.264c-15.04-14.976-15.04-39.296,0-54.272l26.433-26.432l-26.433-26.432
			c-15.04-14.976-15.04-39.296,0-54.272c14.977-15.04,39.296-15.04,54.272,0l26.432,26.432l26.432-26.432
			c14.977-15.04,39.297-15.04,54.272,0c15.04,14.976,15.04,39.296,0,54.272l-26.432,26.432L914.944,426.421z"/>
	</g>
</g>
</svg>
