<?xml version="1.0" encoding="utf-8"?>
<!-- Generator: Adobe Illustrator 16.0.1, SVG Export Plug-In . SVG Version: 6.00 Build 0)  -->
<!DOCTYPE svg PUBLIC "-//W3C//DTD SVG 1.1//EN" "http://www.w3.org/Graphics/SVG/1.1/DTD/svg11.dtd">
<svg version="1.1" id="Layer_1" xmlns="http://www.w3.org/2000/svg" xmlns:xlink="http://www.w3.org/1999/xlink" x="0px" y="0px"
	 width="800px" height="800px" viewBox="240 0 800 800" enable-background="new 240 0 800 800" xml:space="preserve">
<g>
	<g>
		<path d="M676.736,148.533c-13.185-6.4-28.864-4.8-40.448,4.16L484.672,270.517H384c-21.185,0-38.4,17.216-38.4,38.4v182.145
			c0,21.184,17.216,38.399,38.4,38.399h100.672l151.616,117.824c6.912,5.312,15.231,8.064,23.552,8.064
			c5.76,0,11.521-1.28,16.896-3.904c13.184-6.464,21.504-19.84,21.504-34.496v-433.92
			C698.24,168.373,689.92,154.997,676.736,148.533z M422.4,347.317h37.056v105.344H422.4V347.317z M621.44,538.485l-85.185-66.24
			V327.733l85.185-66.24V538.485z"/>
	</g>
	<g>
		<path d="M896,438.39H779.053c-21.203,0-38.4-17.197-38.4-38.401c0-21.203,17.197-38.4,38.4-38.4H896
			c21.203,0,38.4,17.197,38.4,38.4C934.4,421.192,917.203,438.39,896,438.39z"/>
	</g>
	<g>
		<path d="M760.333,307.157c-14.087,0-27.648-7.776-34.381-21.229c-9.485-18.976-1.792-42.036,17.178-51.521l96.416-48.205
			c18.982-9.472,42.035-1.792,51.52,17.171c9.485,18.976,1.792,42.035-17.178,51.52l-96.416,48.198
			C771.962,305.851,766.1,307.157,760.333,307.157z"/>
	</g>
	<g>
		<path d="M856.685,617.839c-5.767,0-11.629-1.306-17.139-4.064L743.13,565.57c-18.97-9.479-26.663-32.544-17.178-51.521
			c9.484-18.957,32.544-26.656,51.52-17.171l96.416,48.205c18.97,9.479,26.663,32.544,17.178,51.52
			C884.339,610.057,870.777,617.839,856.685,617.839z"/>
	</g>
</g>
</svg>
